<svg xmlns="http://www.w3.org/2000/svg" viewBox="0 0 600 600">
  <defs>
    <linearGradient id="g1" x1="0%" y1="0%" x2="100%" y2="100%">
      <stop offset="0%" stop-color="#d7baaa" />
      <stop offset="100%" stop-color="#8b4513" />
    </linearGradient>
  </defs>
  <rect width="600" height="600" rx="40" fill="#f6eee4" />
  <path d="M150 500 C130 340 200 180 300 180 C400 180 470 340 450 500 Z" fill="#fff3e6" />
  <path d="M150 500 C130 340 200 180 300 180 C400 180 470 340 450 500 Z" fill="url(#g1)" opacity="0.35" />
  <circle cx="310" cy="200" r="90" fill="#f0d8c1" />
  <path d="M120 260 C140 210 180 160 260 150 C320 145 380 160 420 210 C430 250 435 310 410 350 C380 410 250 440 210 430 C180 420 140 380 120 330 Z" fill="#8b4513" />
  <path d="M240 285 C225 330 230 395 310 420 C400 445 420 360 420 320 C410 300 390 280 360 270 C325 260 280 260 240 285 Z" fill="#f6eee4" />
  <path d="M198 285 C155 310 155 380 220 420 C260 450 320 460 360 445 C380 435 390 410 390 390 C390 350 365 315 310 300 C255 285 225 285 198 285 Z" fill="#78442d" opacity="0.75" />
  <path d="M300 315 C270 325 250 355 250 395 C250 415 260 430 280 440 C320 455 360 445 380 420 C400 390 390 345 370 320 C345 295 315 295 300 315 Z" fill="#f8e6d6" />
  <path d="M120 180 C220 120 380 120 480 180 L440 260 C420 240 360 230 300 230 C240 230 180 240 160 260 Z" fill="#8b4513" />
</svg>
