<svg xmlns="http://www.w3.org/2000/svg" viewBox="0 0 600 600">
  <defs>
    <linearGradient id="g1" x1="0%" y1="0%" x2="100%" y2="100%">
      <stop offset="0%" stop-color="#f7d5b2" />
      <stop offset="100%" stop-color="#d49a6b" />
    </linearGradient>
  </defs>
  <rect width="600" height="600" rx="40" fill="#f3ece6" />
  <path d="M120 420 Q140 300 230 260 Q280 240 340 270 Q400 300 430 420 Q420 460 370 470 Q330 480 270 470 Q190 460 120 420 Z" fill="#ffe4c4" />
  <path d="M140 410 C170 330 220 290 280 290 C340 290 390 330 420 410" stroke="url(#g1)" stroke-width="36" fill="none" stroke-linecap="round" />
  <path d="M200 280 C220 250 260 230 300 230 C340 230 380 250 400 280" stroke="#8b4513" stroke-width="22" fill="none" stroke-linecap="round" />
  <circle cx="265" cy="240" r="18" fill="#fff5e6" />
  <circle cx="335" cy="260" r="16" fill="#fff5e6" />
  <path d="M140 330 L160 310 Q180 290 220 290" stroke="#8b4513" stroke-width="30" stroke-linecap="round" fill="none" />
  <path d="M340 290 Q380 290 400 320" stroke="#8b4513" stroke-width="30" stroke-linecap="round" fill="none" />
  <path d="M170 360 C190 380 220 400 260 405 C300 410 330 405 360 390 C390 375 420 345 430 320" stroke="#c27c4e" stroke-width="24" stroke-linecap="round" fill="none" />
</svg>
